<?xml version="1.0" standalone="no"?>
<!DOCTYPE svg PUBLIC "-//W3C//DTD SVG 20010904//EN"
 "http://www.w3.org/TR/2001/REC-SVG-20010904/DTD/svg10.dtd">
<svg version="1.0" xmlns="http://www.w3.org/2000/svg"
 width="700.000000pt" height="700.000000pt" viewBox="0 0 700.000000 700.000000"
 preserveAspectRatio="xMidYMid meet">
<metadata>
Created by potrace 1.14, written by Peter Selinger 2001-2017
</metadata>
<g transform="translate(0.000000,700.000000) scale(0.100000,-0.100000)"
fill="#000000" stroke="none">
<path d="M4270 6977 c-208 -71 -462 -358 -725 -820 -78 -136 -81 -140 -115
-143 -230 -15 -248 -17 -380 -40 -171 -31 -341 -81 -525 -157 -95 -39 -127
-54 -275 -135 -340 -185 -669 -504 -896 -867 l-19 -30 -225 0 c-202 -1 -380
-9 -435 -21 -11 -2 -38 -6 -60 -8 -128 -15 -296 -60 -390 -106 -288 -138 -300
-362 -32 -639 70 -73 205 -184 321 -265 213 -149 563 -341 876 -481 58 -26
123 -55 145 -65 72 -33 357 -147 485 -195 484 -182 1084 -365 1595 -485 99
-24 181 -44 182 -45 9 -5 -173 -482 -272 -717 -53 -123 -244 -520 -279 -578
-8 -14 -43 -72 -77 -130 -150 -253 -333 -467 -451 -524 -209 -102 -342 41
-398 429 -16 105 -27 311 -18 320 3 3 52 -17 109 -45 144 -68 382 -154 484
-174 6 -2 36 -8 68 -16 31 -7 59 -11 60 -9 2 2 29 46 61 97 l57 93 -31 35
c-16 19 -30 41 -30 48 0 20 34 46 75 57 29 8 35 14 30 27 -4 9 -9 31 -10 47
-6 59 -37 110 -100 165 -35 30 -66 63 -70 72 -3 9 2 34 11 55 l17 38 6 -34 c7
-38 18 -31 40 26 12 29 11 35 -14 68 -21 26 -33 34 -47 29 -10 -3 -30 2 -44
11 -16 10 -35 14 -50 11 -21 -6 -24 -3 -24 22 0 24 -9 34 -49 60 -66 40 -97
49 -206 58 -102 8 -121 13 -166 46 -48 34 -142 68 -192 68 -42 0 -47 4 -99 75
-79 108 -108 161 -118 213 -5 28 -23 77 -40 108 -23 44 -27 59 -18 66 10 6 9
8 -3 8 -9 0 -23 7 -30 16 -16 19 -21 94 -6 94 5 0 7 11 4 25 -3 17 1 30 12 38
24 17 63 89 54 97 -4 4 -53 24 -108 44 -55 20 -109 41 -120 46 -11 5 -91 39
-177 74 -188 78 -339 146 -512 232 -71 35 -131 64 -133 64 -11 0 15 -221 42
-355 37 -185 119 -416 217 -610 197 -390 490 -718 860 -965 l97 -65 1 -215 c0
-118 2 -231 4 -250 2 -19 7 -71 10 -115 7 -89 8 -95 37 -248 94 -503 347 -641
669 -364 76 65 95 84 185 192 183 217 411 605 612 1040 44 94 223 522 223 532
0 3 6 19 14 36 19 44 99 263 134 367 27 80 31 85 58 86 16 0 43 -3 59 -7 17
-4 48 -10 70 -14 22 -3 72 -12 110 -20 39 -7 88 -16 110 -20 23 -3 52 -7 65
-10 13 -3 42 -7 65 -10 67 -10 88 -13 130 -20 22 -3 56 -8 75 -10 19 -2 51 -7
70 -9 19 -3 60 -8 90 -11 30 -4 66 -8 80 -10 14 -2 57 -6 95 -10 39 -3 84 -8
100 -10 17 -2 82 -6 145 -10 63 -4 126 -9 140 -11 37 -5 526 -4 585 1 28 3 75
7 105 9 227 20 421 69 550 138 87 46 131 85 168 148 23 38 27 57 27 121 0 65
-5 85 -34 143 -42 85 -129 195 -216 271 -37 33 -73 65 -79 70 -79 75 -372 267
-561 369 -38 21 -74 42 -78 46 -5 4 -10 45 -12 91 -4 79 -12 164 -20 213 -2
11 -6 38 -10 60 -50 341 -195 709 -393 1004 -155 230 -328 414 -582 616 -44
34 -110 76 -111 69 0 -4 -2 -42 -5 -83 -2 -41 -6 -96 -8 -121 l-4 -47 66 -53
c37 -30 118 -106 182 -169 316 -316 528 -716 619 -1165 18 -93 23 -122 37
-249 12 -107 4 -461 -11 -486 -2 -3 -6 -30 -10 -60 -11 -98 -67 -317 -75 -295
-6 17 -6 32 2 74 1 3 -4 18 -10 33 -8 19 -8 34 1 57 6 17 9 33 6 36 -3 2 -24
-3 -47 -11 -38 -16 -43 -16 -67 0 -24 16 -26 15 -57 -15 -33 -31 -129 -89
-180 -108 -26 -10 -26 -9 -21 25 7 44 -7 44 -51 -3 l-35 -37 -36 17 c-20 9
-42 17 -50 17 -9 0 -15 10 -15 23 0 12 -14 38 -30 57 l-29 35 -30 -34 c-42
-47 -39 -70 14 -124 25 -26 45 -55 45 -65 0 -13 6 -19 17 -18 11 0 19 -7 21
-20 2 -17 8 -21 25 -16 38 9 77 42 97 83 24 47 38 49 53 9 8 -21 20 -31 42
-36 16 -3 33 -8 36 -10 5 -3 -9 -70 -27 -126 -4 -14 0 -18 18 -18 13 0 127 -2
255 -4 169 -3 235 -1 241 7 12 14 55 156 76 247 31 138 51 281 60 443 2 26 6
50 8 53 8 7 202 -124 298 -201 325 -262 345 -463 59 -579 -70 -29 -215 -61
-324 -72 -38 -3 -81 -8 -95 -10 -36 -4 -437 -4 -485 0 -22 3 -85 7 -140 10
-55 4 -116 8 -135 10 -19 3 -66 7 -105 11 -38 3 -83 8 -100 11 -16 2 -48 6
-70 9 -70 8 -191 25 -215 30 -13 3 -42 7 -65 10 -159 23 -389 65 -398 74 -4 4
8 59 27 122 92 304 214 773 271 1044 3 11 7 31 10 45 3 14 7 34 9 45 3 11 16
74 29 140 14 66 28 140 32 165 3 25 10 61 15 80 5 19 11 53 14 75 3 22 7 49
10 60 2 11 7 40 10 65 3 25 8 54 10 65 4 22 22 144 31 215 4 25 8 56 10 70 2
14 6 50 10 80 3 30 8 71 10 90 32 281 40 429 40 755 0 294 -8 454 -30 565 -2
14 -7 39 -10 56 -14 87 -60 238 -95 311 -90 186 -221 255 -380 200z m-65 -416
c93 -42 161 -168 199 -370 25 -129 31 -225 31 -491 -1 -265 -7 -390 -30 -585
-3 -22 -7 -62 -10 -90 -5 -53 -42 -333 -50 -375 -2 -14 -18 -104 -34 -200 -17
-96 -32 -184 -35 -195 -2 -11 -18 -87 -35 -170 -29 -139 -42 -200 -91 -410
-38 -160 -112 -435 -171 -635 -34 -113 -64 -213 -66 -222 -7 -22 -4 -22 -116
3 -50 11 -99 22 -107 24 -267 60 -747 195 -1060 298 -197 65 -540 188 -595
212 -16 8 -79 34 -140 58 -316 128 -677 304 -865 422 -98 62 -186 119 -190
124 -3 3 -25 20 -50 36 -25 17 -88 73 -141 125 -193 192 -213 338 -59 442 53
36 171 81 241 93 19 3 41 8 49 10 8 3 33 7 55 10 22 2 59 7 83 10 57 7 262 16
262 11 0 -2 -20 -43 -44 -92 -75 -151 -148 -349 -181 -494 -9 -41 -21 -89 -25
-106 l-8 -31 137 -81 c181 -107 446 -237 701 -344 52 -22 109 -46 125 -53 96
-42 487 -185 503 -185 4 0 20 20 37 45 33 50 55 64 104 67 22 2 47 14 74 38
l40 36 23 -23 c12 -12 41 -25 62 -29 29 -4 42 -12 46 -26 4 -16 10 -19 28 -13
75 23 196 45 218 39 14 -4 33 -8 43 -9 10 -1 29 -14 41 -30 19 -24 28 -27 57
-23 48 8 197 -8 215 -23 13 -11 11 -15 -15 -32 -17 -10 -31 -21 -31 -24 0 -3
10 -21 22 -41 l22 -35 -29 -23 -29 -23 19 -23 c33 -38 48 -47 91 -53 50 -8 53
-10 86 -61 20 -31 44 -50 103 -79 88 -43 99 -41 122 20 36 97 72 215 84 271
12 59 11 62 -19 130 -17 38 -33 89 -35 114 -5 45 -53 154 -66 146 -3 -2 -22 3
-41 13 -27 13 -37 25 -45 56 -6 22 -15 48 -21 59 -10 17 -13 17 -42 2 -37 -19
-40 -43 -12 -79 11 -14 20 -33 20 -42 0 -30 59 -102 105 -129 45 -27 70 -57
62 -79 -2 -7 -9 -2 -16 11 -6 12 -21 22 -32 22 -19 0 -20 -4 -15 -34 5 -27 2
-40 -20 -65 -16 -19 -35 -31 -50 -31 -19 0 -24 -5 -24 -25 0 -38 -25 -41 -64
-7 -19 17 -43 35 -53 41 -17 9 -17 11 -1 27 12 12 21 14 30 7 18 -14 104 -16
128 -3 11 6 20 17 20 24 0 13 -116 163 -171 221 -18 19 -30 45 -33 69 -5 34
-27 65 -49 66 -5 0 -23 -11 -41 -25 -37 -28 -77 -32 -99 -11 -29 29 -111 38
-108 12 7 -50 -26 -87 -73 -82 -39 5 -105 -32 -107 -59 -1 -11 -2 -28 -2 -37
0 -11 -7 -18 -19 -18 -11 0 -22 -8 -25 -19 -4 -17 -22 -24 -87 -35 -29 -4
-139 24 -157 40 -9 8 -15 23 -12 33 3 11 -4 24 -19 33 -13 9 -32 31 -42 51
-17 30 -18 39 -7 65 7 16 24 36 38 43 14 8 32 28 39 46 8 17 18 34 24 38 5 3
10 26 10 50 0 34 4 45 19 50 20 6 61 -13 61 -27 0 -5 6 -8 14 -8 7 0 25 -9 39
-20 14 -11 34 -20 44 -20 11 0 28 -7 39 -15 32 -24 61 -18 91 21 23 31 28 47
29 107 2 59 -1 70 -16 74 -19 5 -45 54 -38 73 2 6 18 2 40 -10 50 -27 56 -26
60 13 4 37 19 42 33 9 8 -19 15 -22 35 -17 14 4 35 7 48 7 15 0 26 8 33 25 7
18 14 23 28 18 12 -3 21 0 25 10 4 11 13 14 25 10 14 -4 23 1 32 17 20 37 41
47 96 45 65 -3 77 9 78 75 1 47 4 53 33 72 17 12 32 29 32 39 0 25 17 21 24
-5 12 -46 7 -76 -14 -83 -28 -9 -38 -35 -29 -71 10 -35 42 -50 60 -28 10 13
15 12 34 -6 26 -25 73 -26 114 -2 25 14 34 15 50 5 16 -10 27 -10 56 3 30 12
34 17 26 33 -15 27 5 88 30 96 12 4 27 1 37 -8 15 -13 20 -14 36 -1 11 8 15
14 9 14 -18 0 -43 29 -43 49 0 19 50 38 115 43 25 3 31 8 33 31 3 26 1 27 -25
21 -15 -4 -37 -13 -48 -20 -21 -15 -73 -18 -91 -6 -6 4 -18 28 -27 54 -17 52
-22 41 64 151 18 24 20 30 8 42 -8 7 -24 16 -36 20 -18 5 -25 1 -35 -20 -9
-20 -9 -28 0 -34 13 -8 -49 -61 -72 -61 -8 0 -19 -7 -24 -16 -12 -21 1 -90 22
-113 9 -9 16 -22 16 -27 0 -13 -33 -40 -58 -48 -21 -7 -32 -33 -32 -78 0 -23
-5 -28 -23 -28 -13 0 -38 -11 -57 -25 -40 -29 -53 -24 -48 21 2 19 2 34 -2 34
-3 0 -5 25 -5 55 0 38 -5 59 -17 71 -16 16 -19 16 -42 1 -34 -23 -61 -21 -86
5 -28 31 -25 42 18 62 36 18 36 19 15 29 -37 17 -28 55 11 48 5 -1 4 4 -2 12
-9 11 -4 17 27 30 22 10 56 31 76 47 21 17 55 35 76 40 30 8 39 16 39 33 0 29
10 43 38 51 12 4 39 27 59 52 30 35 44 44 69 44 17 0 42 9 55 19 28 23 59 14
104 -29 17 -16 44 -31 62 -34 30 -6 32 -4 37 32 12 81 26 224 42 422 8 103 13
468 6 492 -12 49 -423 136 -704 149 -27 2 -48 6 -48 10 0 4 32 55 70 114 162
246 299 384 425 427 64 22 90 22 140 -1z m-725 -764 c0 -2 -9 -12 -20 -22 -17
-16 -20 -16 -20 -2 0 8 8 18 18 20 9 3 18 5 20 6 1 0 2 -1 2 -2z m-199 -45 c8
-22 7 -23 -24 -20 -24 2 -33 8 -35 24 -4 31 48 28 59 -4z m-255 -22 c7 -7 21
-7 43 1 28 10 35 9 54 -8 12 -11 35 -25 51 -32 33 -14 25 -28 -19 -33 -22 -2
-31 -9 -35 -28 -4 -17 -13 -25 -27 -25 -12 0 -30 -10 -41 -22 -23 -27 -81 -53
-116 -53 -15 0 -38 -13 -58 -34 -23 -25 -45 -37 -73 -40 -22 -4 -33 -3 -25 0
25 11 50 36 44 46 -8 13 -37 2 -95 -37 -28 -20 -61 -34 -75 -33 -13 1 -24 5
-24 7 0 11 75 81 87 81 7 0 19 14 28 30 17 32 35 40 35 15 0 -9 10 -19 23 -24
17 -6 25 -4 36 11 8 11 19 17 29 13 8 -3 33 6 55 21 39 26 55 32 89 33 14 1
38 46 38 72 0 12 -78 11 -85 -1 -4 -6 5 -10 19 -10 24 0 25 -2 14 -20 -8 -12
-24 -20 -40 -20 -15 0 -38 -4 -53 -10 -15 -6 -24 -6 -20 -1 13 22 -18 20 -64
-3 -50 -26 -101 -40 -101 -28 1 17 18 32 55 47 28 12 35 19 25 25 -9 6 4 13
41 24 30 9 59 17 64 18 6 1 28 7 50 14 50 16 59 16 71 4z m484 -44 c11 -21 16
-23 37 -15 13 5 33 9 44 9 17 0 18 -3 9 -20 -6 -11 -8 -20 -4 -20 3 0 1 -7 -7
-16 -7 -8 -21 -13 -31 -11 -10 3 -20 2 -23 -3 -7 -12 23 -33 39 -27 10 4 16
-2 18 -16 2 -18 9 -22 36 -19 17 1 32 -2 32 -8 0 -5 15 -10 34 -10 46 0 52
-13 21 -46 l-26 -28 22 -11 c17 -10 19 -14 8 -21 -8 -4 -25 -9 -40 -10 -47 -4
-99 -31 -99 -53 0 -22 -24 -29 -36 -10 -4 7 -14 0 -26 -19 -10 -16 -30 -33
-44 -36 -17 -5 -24 -12 -20 -21 3 -8 1 -17 -4 -20 -13 -8 -40 6 -40 20 0 15
-35 30 -49 21 -4 -3 -7 -21 -4 -40 3 -28 -1 -36 -18 -41 -15 -5 -25 -2 -31 9
-10 17 -43 22 -53 7 -3 -5 4 -12 15 -16 11 -3 20 -14 20 -24 0 -27 -99 -22
-129 8 -22 22 -51 28 -51 11 0 -6 -13 -9 -29 -8 -16 1 -35 -3 -43 -9 -15 -13
-68 -6 -68 9 0 5 -8 8 -17 7 -10 -2 -28 1 -41 5 -15 5 -31 2 -47 -8 -13 -9
-32 -17 -42 -19 -31 -4 -153 -60 -153 -69 0 -17 -40 -7 -50 13 -10 17 -8 21 9
26 15 4 18 9 12 22 -11 20 21 62 64 84 17 8 41 27 54 41 15 16 35 26 52 26 18
0 28 6 32 20 7 27 71 53 108 45 21 -5 41 0 72 18 23 13 54 27 70 31 17 4 27
13 27 25 0 13 16 24 59 40 32 11 65 21 74 21 20 0 36 27 30 50 -4 14 5 19 39
25 53 10 88 9 101 -4 13 -13 57 8 57 26 0 19 -25 27 -47 15 -13 -7 -24 -6 -36
3 -16 11 -14 15 25 38 54 33 71 33 88 3z m-888 -188 c-27 -36 -49 -55 -77 -65
-22 -7 -53 -20 -70 -28 l-30 -14 29 -11 c21 -7 32 -7 42 1 15 12 44 6 44 -9 0
-5 -17 -14 -38 -19 -36 -9 -202 -110 -200 -122 2 -25 -5 -45 -26 -66 -14 -13
-27 -33 -30 -43 -4 -10 -34 -34 -67 -53 -63 -35 -100 -74 -91 -98 8 -22 -20
-31 -50 -15 -15 8 -28 18 -28 22 0 17 57 62 104 82 49 22 52 39 7 43 -20 1
-21 5 -16 48 5 41 4 48 -14 54 -10 3 -31 3 -45 -1 l-26 -6 22 -17 c23 -20 19
-55 -6 -45 -8 3 -17 -2 -20 -13 -3 -10 -19 -26 -35 -35 -21 -11 -33 -29 -41
-57 -11 -41 -26 -50 -64 -35 -14 5 -14 9 1 35 10 16 24 29 33 30 8 0 4 5 -10
10 -19 8 -32 6 -53 -6 -18 -11 -32 -14 -38 -8 -10 10 88 109 201 204 88 74
241 182 248 175 3 -3 -1 -6 -8 -6 -7 0 -11 -3 -8 -6 3 -3 23 2 44 12 22 9 52
16 67 15 16 -1 56 13 89 31 37 19 72 31 89 30 15 -2 45 6 66 17 21 11 39 20
41 21 1 0 -15 -23 -36 -52z m-212 7 c0 -8 -12 -18 -27 -21 -16 -4 -44 -16 -63
-27 -19 -11 -30 -14 -23 -7 9 10 100 67 111 69 1 1 2 -6 2 -14z m1584 -193
c-13 -10 -15 -16 -7 -19 9 -3 6 -15 -10 -39 -35 -54 -60 -42 -71 34 -5 36 -3
42 13 42 10 0 22 -8 25 -17 6 -15 8 -14 22 5 9 13 21 19 31 15 14 -6 14 -8 -3
-21z m-826 -252 c8 -16 20 -30 27 -30 7 0 15 -5 17 -11 2 -5 19 -11 38 -13 84
-6 11 -74 -84 -78 -46 -2 -76 27 -76 73 0 23 5 29 21 29 17 0 20 4 15 24 -5
22 2 32 24 35 3 1 11 -12 18 -29z m166 -479 c3 -5 -9 -12 -27 -16 l-32 -7 38
-16 c44 -18 47 -45 4 -50 -31 -4 -33 -9 -11 -33 10 -11 16 -40 17 -89 2 -63 5
-74 27 -90 24 -18 24 -19 6 -39 -11 -12 -27 -21 -37 -21 -10 0 -23 -9 -29 -20
-12 -23 -33 -26 -49 -6 -7 8 -21 12 -31 9 -11 -3 -27 0 -35 7 -12 10 -16 9
-21 -4 -6 -16 -8 -16 -25 0 -11 9 -19 23 -19 29 0 16 25 26 46 18 14 -5 15 -3
5 15 -7 12 -16 22 -21 22 -5 0 -7 7 -4 15 3 8 11 13 17 12 6 -1 16 8 22 20 8
16 15 19 22 12 19 -19 34 1 32 40 -1 20 1 48 5 63 4 14 3 34 -2 45 -16 29 -3
66 31 89 31 20 57 18 71 -5z m-255 -115 c11 -13 17 -13 46 0 58 24 91 -9 42
-41 -13 -8 -29 -33 -36 -54 -10 -36 -14 -39 -39 -35 -55 9 -81 25 -79 48 1 11
11 23 21 26 32 9 31 30 -1 30 l-28 0 25 20 c30 24 34 24 49 6z m402 -804 c-10
-20 -40 -37 -49 -28 -2 3 8 16 23 31 31 28 42 27 26 -3z m-8 -113 c-1 -13 -3
-36 -4 -51 -2 -33 -46 -49 -78 -29 -11 7 -7 18 22 52 21 23 37 47 37 52 0 5 6
7 13 4 6 -2 11 -15 10 -28z"/>
<path d="M4600 3628 c-6 -24 -15 -55 -20 -70 -11 -36 0 -42 73 -45 53 -1 58 1
63 23 10 40 -5 73 -48 104 -22 17 -45 30 -49 30 -5 0 -13 -19 -19 -42z"/>
<path d="M4519 3253 c-19 -5 -91 -254 -76 -265 19 -12 39 5 58 48 10 24 23 44
29 44 6 0 9 33 7 90 -1 49 -2 89 -2 89 0 -1 -7 -3 -16 -6z"/>
<path d="M4395 2867 c-4 -9 0 -23 9 -32 15 -15 16 -15 16 2 0 10 -4 25 -10 33
-8 12 -10 12 -15 -3z"/>
<path d="M4779 2167 c11 -14 11 -18 -3 -23 -9 -3 -13 -10 -10 -16 9 -14 129
-2 154 15 20 14 16 15 -47 21 -37 4 -77 10 -88 13 -17 5 -18 4 -6 -10z"/>
<path d="M5013 2088 c-23 -53 -87 -144 -127 -183 -11 -10 -94 -77 -126 -102
-58 -44 -248 -198 -280 -227 -46 -41 -92 -108 -89 -128 2 -7 -4 -26 -13 -43
-12 -23 -33 -37 -87 -57 -102 -40 -269 -86 -401 -109 -63 -12 -115 -22 -115
-22 0 -1 -24 -50 -53 -110 -28 -59 -52 -110 -52 -113 0 -10 186 11 320 37 591
114 1144 460 1513 948 48 63 85 116 83 118 -2 3 -30 6 -63 8 -165 10 -251 16
-278 20 -16 2 -66 6 -110 10 -44 4 -83 9 -87 11 -4 3 -19 -24 -35 -58z"/>
</g>
</svg>
